<svg xmlns:svg="http://www.w3.org/2000/svg" xmlns="http://www.w3.org/2000/svg" width="28.222221mm" height="28.222221mm" viewBox="0 0 99.999999 99.999997" id="svg3378" version="1.1"><title id="title4738">Facebook</title><defs id="defs3380"/><metadata id="metadata3383"/><g id="layer1" transform="translate(82.857147,-626.64789)"><g id="g4756" transform="matrix(0.20000001,0,0,0.20000001,-66.285717,581.31829)"><path d="M417.14285 476.64789A250 250 0 0 1 168.12787 726.64595 250 250 0 0 1-82.849385 478.61791 250 250 0 0 1 164.18786 226.66535 250 250 0 0 1 417.11181 472.70797" id="path3386" style="fill-opacity:1;fill:#4867aa"/><path id="path6831" d="m230.86749 375.88145c-14.98635-0.1145-4.59595-0.0735-14.98635-0.1145-13.9819 0-22.0375-0.8361-29.4619 2.36805-8.992 3.1696-6.3502 19.8628-6.3502 34.2435l0 3.47753 54.91481-0.35714-8.87011 47.75411-44.0522-0.001-0.035 177.56215-60.5843 0.002 0.005-178.36795-40.703 0-0.08929-46.63439 41.66524 0.0461c-0.03-41.4678-2.496-55.1124 7.902-71.82905 9.96145-17.0009 38.9639-17.5406 68.24665-17.5406 35.35495 2.76415 24.4457 2.1209 32.09335 3.10515z" style="-inkscape-font-specification:'sans-serif Bold';fill-opacity:1;fill:#fff;font-family:sans-serif;font-size:180px;font-stretch:normal;font-style:normal;font-variant:normal;font-weight:bold;letter-spacing:0px;line-height:125%;word-spacing:0px"/></g></g></svg>