<svg xmlns:svg="http://www.w3.org/2000/svg" xmlns="http://www.w3.org/2000/svg" version="1.1" viewBox="0 0 99.999997 99.999997" height="28.222221mm" width="28.222221mm"><style>.s0{fill:#fff;}</style><title>Twitter</title><defs><clipPath clipPathUnits="userSpaceOnUse"><path d="M426.99868-103.86506A391.93918 391.93918 0 0 1 36.603768 288.07108 391.93918 391.93918 0 0 1-356.86751-100.77655 391.93918 391.93918 0 0 1 30.426798-495.77686 391.93918 391.93918 0 0 1 426.95-110.04189" style="fill-opacity:0.33136094;fill:#000;opacity:0.2"/></clipPath></defs><metadata/><g transform="translate(356.97083,-188.15227)"><path d="m-256.97083 238.15227a50 50 0 0 1-49.80299 49.99961 50 50 0 0 1-50.19545-49.60561 50 50 0 0 1 49.40745-50.39051 50 50 0 0 1 50.58479 49.20852" fill="#5ea9dd"/><g transform="matrix(0.08235607,0,0,0.08235607,-334.95047,203.30998)"><path d="M621.42859 242.36221A147.14285 147.14285 0 0 1 474.86549 389.50392 147.14285 147.14285 0 0 1 327.14745 243.52171 147.14285 147.14285 0 0 1 472.54651 95.229639 147.14285 147.14285 0 0 1 621.41032 240.04329" fill="#fff"/><path d="m570.19324 149.19735c0 0 45.40925-8.46589 66.92905-16.52602 17.97739-6.73334 51.22401-26.32151 51.22401-26.32151 0 0-18.23612 41.38887-32.37937 58.68327-10.80802 13.21607-39.04154 33.15205-39.04154 33.15205 0 0-4.91305 2.46679 31.55762-2.76599 25.8408-3.70762 48.79574-14.53472 48.79574-14.53472 0 0-10.21305 27.88343-57.65353 58.14613-25.68535 16.3849-40.65996 21.43913-40.65996 21.43913z" fill="#fff"/><path d="m332.85714 271.43815c0 0-77.52655 13.38787-165.34663-21.4811-110.743234-43.97061-183.224795-114.7377-183.224795-114.7377 0 0-16.622795 50.26291-6.538807 105.46814 15.5536667 85.14923 57.967374 100.14515 57.967374 100.14515 0 0-14.737122 3.98148-35.99528088-1.07013C-17.330498 335.711-50 318.98622-50 318.98622c0 0-3.364661 83.30807 53.2965892 126.59692 37.2233588 28.43843 80.4691808 38.57237 80.4691808 38.57237 0 0-4.285714 2.85714-26.102965 7.00892-41.111314 7.82339-54.8056621-3.83234-54.8056621-3.83234 0 0-5.1101767 35.06507 53.5714311 88.88282 39.85509 36.55168 109.285706 50.19313 109.285706 50.19313 0 0-16.06062 25.97615-82.928928 52.31526-58.023867 22.85533-165.786072 23.46949-165.786072 23.46949 0 0 336.60263 159.46063 576.42857-41.76519C662.57718 518.50297 622.85714 238.02599 622.85714 238.02599Z" fill="#fff"/></g></g></svg>